<svg width="25" height="26" viewBox="0 0 25 26" fill="none" xmlns="http://www.w3.org/2000/svg">
<path d="M11.101 14.382C9.04203 14.382 2.98217 14.382 2.98217 14.382C2.33888 14.382 1.8125 14.9083 1.8125 15.5516V24.3305C1.8125 24.9738 2.33888 25.5001 2.98217 25.5001C2.98217 25.5001 9.16884 25.5001 11.2375 25.5001C11.5127 25.5001 11.5127 25.2045 11.5127 25.2045V14.7794C11.5127 14.7794 11.5126 14.382 11.101 14.382Z" fill="black"/>
<path d="M22.0189 14.382C22.0189 14.382 15.9359 14.382 13.9083 14.382C13.4143 14.382 13.4883 14.8964 13.4883 14.8964V25.214C13.4883 25.214 13.4843 25.4998 13.7814 25.4998C15.8408 25.4998 22.0187 25.4998 22.0187 25.4998C22.662 25.4998 23.1884 24.9735 23.1884 24.3302V15.5516C23.1886 14.9083 22.6622 14.382 22.0189 14.382Z" fill="black"/>
<path d="M11.5122 7.47457C11.5122 7.47457 11.5122 7.07823 11.1205 7.07823C8.77529 7.07823 1.66088 7.07823 1.66088 7.07823C1.01759 7.07823 0.491211 7.60461 0.491211 8.24782V11.8989C0.491211 12.5422 1.01759 13.0685 1.66088 13.0685C1.66088 13.0685 8.80716 13.0685 11.1526 13.0685C11.5122 13.0685 11.5122 12.7566 11.5122 12.7566V7.47457Z" fill="black"/>
<path d="M23.3395 7.07823C23.3395 7.07823 16.2222 7.07823 13.8497 7.07823C13.4883 7.07823 13.4883 7.42259 13.4883 7.42259V12.7638C13.4883 12.7638 13.4883 13.0685 13.9277 13.0685C16.2805 13.0685 23.3395 13.0685 23.3395 13.0685C23.9828 13.0685 24.5091 12.5422 24.5091 11.8989V8.24782C24.5091 7.60461 23.9828 7.07823 23.3395 7.07823Z" fill="black"/>
<path d="M7.53372 6.21286C6.99857 6.21286 6.50977 6.17043 6.08113 6.08666C4.99242 5.87396 4.24414 5.45998 3.79352 4.82121C3.38977 4.24873 3.2662 3.54297 3.42615 2.72345C3.70634 1.28961 4.66928 0.5 6.13738 0.5C6.44807 0.5 6.78928 0.535876 7.15162 0.60669C8.07331 0.786751 9.25218 1.31526 10.3052 2.02042C12.0917 3.21693 12.1801 3.96078 12.0911 4.41626C11.9603 5.08554 11.3348 5.56378 10.1786 5.87839C9.39756 6.09092 8.43352 6.21286 7.53372 6.21286ZM6.13746 2.37466C5.5689 2.37466 5.3735 2.5335 5.26622 3.08289C5.17844 3.53206 5.28914 3.68894 5.32544 3.7405C5.47747 3.9561 5.87346 4.1359 6.44057 4.2466C6.74658 4.30642 7.12469 4.33803 7.53364 4.33803C8.43292 4.33803 9.22517 4.20177 9.75087 4.05273C9.78913 4.04191 9.84852 3.99666 9.78487 3.95874C9.0976 3.39887 7.84024 2.65127 6.79217 2.4465C6.54803 2.39895 6.32766 2.37466 6.13746 2.37466Z" fill="black"/>
<path d="M17.4935 6.21286C17.4935 6.21286 17.4935 6.21286 17.4933 6.21286C16.5935 6.21286 15.6296 6.09092 14.8485 5.87839C13.6923 5.56386 13.0668 5.08554 12.936 4.41634C12.8471 3.96087 12.9353 3.21702 14.722 2.0205C15.7749 1.31534 16.9538 0.786835 17.8756 0.606774C18.238 0.53596 18.5792 0.500084 18.8896 0.500084C20.358 0.500084 21.3209 1.28978 21.6008 2.72362C21.7609 3.54305 21.6375 4.24881 21.2336 4.82129C20.783 5.46015 20.0348 5.87404 18.9458 6.08674C18.5174 6.17034 18.0286 6.21286 17.4935 6.21286ZM15.2573 3.94715C15.1963 3.98251 15.2258 4.03833 15.2574 4.04745C15.7829 4.19853 16.5835 4.33812 17.4933 4.33812C17.9025 4.33812 18.2804 4.3065 18.5865 4.24668C19.1535 4.1359 19.5497 3.95618 19.7016 3.74058C19.7381 3.68903 19.8489 3.53215 19.7608 3.08297C19.6536 2.53359 19.4582 2.37475 18.8895 2.37475C18.6994 2.37475 18.4792 2.39895 18.2349 2.44667C17.1867 2.65136 15.9445 3.38719 15.2573 3.94715Z" fill="black"/>
</svg>
