<svg width="25" height="24" viewBox="0 0 25 24" fill="none" xmlns="http://www.w3.org/2000/svg">
<path d="M24.9346 9.08896C24.77 8.58274 24.321 8.22434 23.7919 8.17647L16.5752 7.52128L13.723 0.843924C13.5125 0.353345 13.0333 0.0367203 12.5 0.0367203C11.9667 0.0367203 11.4874 0.353345 11.2782 0.843924L8.42606 7.52128L1.20815 8.17647C0.679043 8.2253 0.230999 8.58369 0.0654383 9.08896C-0.0991687 9.59518 0.0528495 10.1504 0.453018 10.5014L5.90832 15.2849L4.29982 22.3693C4.18214 22.8902 4.38432 23.4288 4.81653 23.7413C5.04885 23.9101 5.3218 23.9944 5.5957 23.9944C5.83107 23.9944 6.06663 23.9318 6.27701 23.8059L12.5 20.085L18.7219 23.8059C19.1783 24.0787 19.7523 24.0537 20.1835 23.7413C20.6157 23.4288 20.8179 22.8902 20.7002 22.3693L19.0917 15.2849L24.547 10.5014C24.947 10.1504 25.0992 9.59632 24.9346 9.08896Z" fill="black"/>
</svg>
