<svg width="40" height="24" viewBox="0 0 40 24" fill="none" xmlns="http://www.w3.org/2000/svg">
<path fill-rule="evenodd" clip-rule="evenodd" d="M28.5156 0.360596C31.9836 1.16534 33.3102 3.19324 34.9734 5.98438H28.5156V0.360596ZM8.24829 6.21875C8.92731 6.21875 9.42017 6.54651 9.42017 7.3125C9.42017 7.95856 8.8974 8.48254 8.25165 8.48438H1.17188C0.524597 8.48438 0 9.00928 0 9.65625C0 10.3035 0.524597 10.8281 1.17188 10.8281H11.7188C12.3721 10.8281 12.8952 11.3524 12.8952 12C12.8952 12.6473 12.3706 13.1719 11.7233 13.1719H1.17188C0.524597 13.1719 0 13.6965 0 14.3438C0 14.991 0.524597 15.5156 1.17188 15.5156H3.75V19.0312C3.75 19.6785 4.2746 20.2031 4.92188 20.2031H7.27753C7.69745 22.2716 9.52515 23.7969 11.6797 23.7969C13.8342 23.7969 15.6619 22.2716 16.0818 20.2031H27.9807C28.4006 22.2716 30.2283 23.7969 32.3828 23.7969C34.5374 23.7969 36.3651 22.2716 36.785 20.2031H38.8281C39.4754 20.2031 40 19.6785 40 19.0312V12C40 8.56158 36.3733 8.33331 36.3699 8.32812H27.3438C26.6965 8.32812 26.1719 7.80353 26.1719 7.15625V0.125H4.92188C4.2746 0.125 3.75 0.649597 3.75 1.29688V3.875H2.34375C1.69647 3.875 1.17188 4.3996 1.17188 5.04688C1.17188 5.69415 1.69647 6.21875 2.34375 6.21875H8.24829ZM33.902 17.7855C34.7409 18.6245 34.7409 19.9852 33.902 20.8242C32.5525 22.1736 30.2344 21.2136 30.2344 19.3047C30.2344 17.3961 32.5525 16.436 33.902 17.7855ZM13.1989 17.7855C14.0378 18.6245 14.0378 19.9852 13.1989 20.8242C11.8494 22.1736 9.53125 21.2136 9.53125 19.3047C9.53125 17.3961 11.8494 16.436 13.1989 17.7855Z" fill="black"/>
</svg>
